<?xml version="1.0" encoding="utf-8"?>
<svg xmlns="http://www.w3.org/2000/svg" viewBox="0 0 100 100" width="200" height="200">
  <path d="M77.634766 14.822266C77.542391 14.841766 77.456219 14.887031 77.386719 14.957031L71.642578 20.699219C71.540578 20.800219 71.488094 20.939031 71.496094 21.082031L71.763672 25.621094L62.087891 35.296875C58.793179 32.551441 54.574711 30.880859 49.960938 30.880859C43.617937 30.880859 37.717734 34.026781 34.177734 39.300781C34.023734 39.529781 34.0835 39.840141 34.3125 39.994141C34.5415 40.148141 34.853813 40.090375 35.007812 39.859375C38.361812 34.864375 43.951937 31.880859 49.960938 31.880859C54.29889 31.880859 58.262489 33.44596 61.373047 36.011719L54.6875 42.699219C53.244322 41.567286 51.43533 40.882812 49.462891 40.882812C44.775891 40.882812 40.962891 44.695813 40.962891 49.382812C40.962891 54.069812 44.775891 57.882812 49.462891 57.882812C54.149891 57.882812 57.962891 54.069812 57.962891 49.382812C57.961992 47.7174 57.454846 46.18072 56.623047 44.869141L63.460938 38.03125C66.248422 41.201297 67.960938 45.339335 67.960938 49.882812C67.960938 59.807813 59.885938 67.882812 49.960938 67.882812C40.035938 67.882812 31.960937 59.807812 31.960938 49.882812C31.960938 48.583813 32.099047 47.28825 32.373047 46.03125C32.432047 45.76125 32.262187 45.494547 31.992188 45.435547C31.723188 45.377547 31.455484 45.547359 31.396484 45.818359C31.107484 47.144359 30.960938 48.510859 30.960938 49.880859C30.960938 60.357859 39.483938 68.880859 49.960938 68.880859C60.437938 68.880859 68.960938 60.357859 68.960938 49.880859C68.960938 45.06278 67.132009 40.680038 64.164062 37.328125L73.818359 27.673828L78.355469 27.941406C78.364469 27.942406 78.374766 27.941406 78.384766 27.941406C78.517766 27.941406 78.644281 27.889922 78.738281 27.794922L84.480469 22.052734C84.619469 21.913734 84.665703 21.704484 84.595703 21.521484C84.525703 21.338484 84.35325 21.211219 84.15625 21.199219L79.535156 20.929688L78.509766 19.902344L78.238281 15.28125C78.227281 15.08525 78.101969 14.91375 77.917969 14.84375C77.825969 14.80975 77.727141 14.802766 77.634766 14.822266 z M 48.960938 14.882812C47.857937 14.882812 46.960938 15.779813 46.960938 16.882812L46.960938 20.013672C31.666651 21.348546 19.626953 34.216744 19.626953 49.851562C19.626953 60.562396 25.280026 69.971721 33.755859 75.269531L27.306641 81.71875C26.910641 82.11475 26.691406 82.644031 26.691406 83.207031C26.691406 83.771031 26.909641 84.299312 27.306641 84.695312C27.703641 85.091313 28.230922 85.310547 28.794922 85.310547C29.358922 85.310547 29.887203 85.091313 30.283203 84.695312L37.654297 77.324219C41.313139 78.919517 45.348211 79.810547 49.587891 79.810547C53.757545 79.810547 57.729201 78.952162 61.339844 77.40625L68.630859 84.695312C69.026859 85.091313 69.556141 85.310547 70.119141 85.310547C70.683141 85.310547 71.211422 85.091312 71.607422 84.695312C72.003422 84.299312 72.222656 83.769078 72.222656 83.205078C72.222656 82.642078 72.004422 82.112797 71.607422 81.716797L65.261719 75.371094C73.825583 70.091785 79.546875 60.6284 79.546875 49.851562C79.546875 42.900562 77.112406 36.126344 72.691406 30.777344C72.338406 30.351344 71.708203 30.289578 71.283203 30.642578C70.857203 30.993578 70.798391 31.624781 71.150391 32.050781C75.275391 37.042781 77.546875 43.364562 77.546875 49.851562C77.546875 65.268563 65.004891 77.810547 49.587891 77.810547C34.170891 77.810547 21.628906 65.268563 21.628906 49.851562C21.628906 34.434562 34.170891 21.892578 49.587891 21.892578C56.016891 21.892578 62.293719 24.127547 67.261719 28.185547C67.689719 28.533547 68.320922 28.471969 68.669922 28.042969C69.018922 27.614969 68.955344 26.986719 68.527344 26.636719C63.556945 22.57826 57.3658 20.221801 50.960938 19.925781L50.960938 16.882812C50.960938 15.779813 50.063938 14.882813 48.960938 14.882812 z M 48.960938 15.882812C49.511938 15.882812 49.960938 16.330813 49.960938 16.882812L49.960938 19.900391C49.83645 19.898826 49.712492 19.892578 49.587891 19.892578C49.042461 19.892578 48.49928 19.908574 47.960938 19.9375L47.960938 16.882812C47.960938 16.330813 48.409938 15.882812 48.960938 15.882812 z M 77.304688 16.451172L77.505859 19.878906L72.708984 24.675781L72.507812 21.248047L77.304688 16.451172 z M 77.994141 20.802734L77.996094 20.802734L78.634766 21.441406L73.269531 26.808594L50.125 49.951172C50.079 49.975172 50.037 50.008875 50 50.046875C49.745 50.310875 49.259766 50.100094 49.259766 49.746094C49.259766 49.630094 49.306578 49.5205 49.392578 49.4375C49.427578 49.4035 49.456516 49.363312 49.478516 49.320312L72.625 26.173828L72.628906 26.169922L77.994141 20.802734 z M 79.558594 21.933594L82.984375 22.132812L78.189453 26.929688L74.763672 26.728516L79.558594 21.933594 z M 33.253906 41.474609C33.059094 41.466687 32.867797 41.571813 32.779297 41.757812C32.648297 42.034813 32.52425 42.314656 32.40625 42.597656C32.30125 42.852656 32.422734 43.146953 32.677734 43.251953C32.739734 43.277953 32.805141 43.289062 32.869141 43.289062C33.065141 43.289062 33.250078 43.172469 33.330078 42.980469C33.441078 42.712469 33.559594 42.4485 33.683594 42.1875C33.802594 41.9375 33.695312 41.640484 33.445312 41.521484C33.382812 41.492234 33.318844 41.47725 33.253906 41.474609 z M 49.462891 41.882812C51.159604 41.882812 52.719035 42.456028 53.976562 43.410156L48.675781 48.710938C48.635781 48.750937 48.602078 48.796703 48.580078 48.845703C48.371078 49.100703 48.259766 49.414094 48.259766 49.746094C48.259766 50.536094 48.901406 51.179688 49.691406 51.179688C50.019406 51.179688 50.332937 51.067281 50.585938 50.863281C50.637937 50.839281 50.686516 50.806672 50.728516 50.763672L55.90625 45.585938C56.566537 46.702291 56.962891 47.99395 56.962891 49.382812C56.962891 53.518813 53.598891 56.882812 49.462891 56.882812C45.326891 56.882812 41.962891 53.518812 41.962891 49.382812C41.962891 45.246812 45.326891 41.882813 49.462891 41.882812 z M 34.638672 75.798828C35.304682 76.184 35.982721 76.550664 36.679688 76.884766L29.576172 83.988281C29.161172 84.404281 28.428672 84.404281 28.013672 83.988281C27.805672 83.780281 27.691406 83.502078 27.691406 83.205078C27.691406 82.908078 27.805672 82.631828 28.013672 82.423828L34.638672 75.798828 z M 64.369141 75.892578L70.900391 82.423828C71.108391 82.631828 71.222656 82.908078 71.222656 83.205078C71.222656 83.502078 71.108391 83.780281 70.900391 83.988281C70.484391 84.403281 69.753891 84.405281 69.337891 83.988281L62.3125 76.964844C63.014069 76.634233 63.698495 76.274779 64.369141 75.892578 z" fill="#1E84B5" />
</svg>