<?xml version="1.0" encoding="utf-8"?>
<svg xmlns="http://www.w3.org/2000/svg" viewBox="0 0 32 32" width="64" height="64">
  <path d="M16 6C7.914 6 1.5238594 13.033031 1.2558594 13.332031L0.65820312 14L1.2558594 14.667969C1.5138594 14.955969 7.4265469 21.439219 15.060547 21.949219C15.369547 21.982219 15.683 22 16 22C16.317 22 16.630453 21.982219 16.939453 21.949219C16.959983 21.947846 16.979521 21.942938 17 21.941406L17 32L32 32L32 17L28.208984 17C29.712063 15.777865 30.646114 14.777063 30.744141 14.667969L31.341797 14L30.744141 13.332031C30.476141 13.033031 24.086 6 16 6 z M 16 8C18.151 8 20.196766 8.5947813 22.009766 9.4257812C22.652766 10.506781 23 11.735 23 13C23 14.487963 22.52994 15.865231 21.734375 17L17 17L17 18L17 19.925781C16.673435 19.973571 16.339537 20 16 20C12.14 20 9 16.86 9 13C9 11.744 9.3366563 10.5125 9.9726562 9.4375L9.9648438 9.4335938C11.782844 8.5975937 13.836 8 16 8 z M 16 10C14.343 10 13 11.343 13 13C13 14.657 14.343 16 16 16C17.657 16 19 14.657 19 13C19 11.343 17.657 10 16 10 z M 7.2558594 10.935547C7.0968594 11.609547 7 12.3 7 13C7 14.737 7.5024219 16.353469 8.3574219 17.730469C6.0684219 16.419469 4.3013438 14.864047 3.4023438 13.998047C4.1503438 13.275047 5.5018594 12.074547 7.2558594 10.935547 z M 24.740234 10.939453C26.494234 12.078453 27.848656 13.279953 28.597656 14.001953C27.862871 14.712191 26.5235 15.878592 24.8125 17L24.03125 17C24.638507 15.792223 25 14.441703 25 13C25 12.3 24.899234 11.612453 24.740234 10.939453 z M 19 19L30 19L30 30L19 30L19 19 z M 27.292969 21.292969L24 24.585938L21.707031 22.292969L20.292969 23.707031L24 27.414062L28.707031 22.707031L27.292969 21.292969 z" fill="#1E84B5" />
</svg>