<?xml version="1.0" encoding="utf-8"?>
<svg xmlns="http://www.w3.org/2000/svg" width="128" height="128" viewBox="0 0 64 64">
  <path d="M32.984375 1.9863281 A 1.0001 1.0001 0 0 0 32.001953 2.9453125 A 1.0001 1.0001 0 0 0 32 3L32 9.6679688L32 18.757812L24.330078 33.742188 A 1.0001 1.0001 0 0 0 24.308594 33.785156L23.623047 35.123047L22.806641 36.691406L18.925781 27.125 A 1.0001 1.0001 0 0 0 17.109375 27.046875L2.3867188 56L1 56 A 1.0001 1.0001 0 1 0 1 58L63 58 A 1.0001 1.0001 0 1 0 63 56L60.625 56L49.658203 33.564453 A 1.0001 1.0001 0 0 0 47.876953 33.53125L45.091797 38.736328L34 18.740234L34 11.285156C37.594653 13.068491 41.55235 14.002068 45.566406 14L46.332031 14 A 1.0001 1.0001 0 0 0 47.332031 13L47.332031 6.3320312 A 1.0001 1.0001 0 0 0 46.332031 5.3320312L45.566406 5.3320312 A 1.0001 1.0001 0 0 0 45.564453 5.3320312C41.838951 5.3349111 38.164267 4.4693817 34.830078 2.8046875L34.833984 2.8085938L33.582031 2.1738281 A 1.0001 1.0001 0 0 0 32.984375 1.9863281 z M 34 4.6171875C37.524477 6.3652219 41.399964 7.2717643 45.332031 7.3046875L45.332031 11.972656C41.688004 11.93852 38.095083 11.102538 34.833984 9.4746094L34.830078 9.4726562L34 9.0527344L34 4.6171875 z M 33.035156 21.125L40.087891 33.837891L37.109375 35.552734L33.646484 32.621094 A 1.0001 1.0001 0 0 0 33.001953 32.384766 A 1.0001 1.0001 0 0 0 32.353516 32.621094L28.929688 35.517578L26.501953 33.886719L33.035156 21.125 z M 17.898438 29.90625L21.59375 39.021484L18.589844 44.789062 A 1.0001 1.0001 0 1 0 20.363281 45.712891L23.462891 39.759766 A 1.0001 1.0001 0 0 0 23.597656 39.5625L25.398438 36.044922L25.587891 35.681641L28.443359 37.599609 A 1.0001 1.0001 0 0 0 29.646484 37.533203L33 34.693359L36.353516 37.533203 A 1.0001 1.0001 0 0 0 37.498047 37.636719L41.058594 35.587891L44.234375 41.310547 A 1.0001 1.0001 0 0 0 45.990234 41.296875L48.71875 36.199219L58.398438 56L4.6289062 56L17.898438 29.90625 z M 11.984375 49.986328 A 1.0001 1.0001 0 0 0 11 51L11 53 A 1.0001 1.0001 0 1 0 13 53L13 51 A 1.0001 1.0001 0 0 0 11.984375 49.986328 z M 16.984375 49.986328 A 1.0001 1.0001 0 0 0 16 51L16 53 A 1.0001 1.0001 0 1 0 18 53L18 51 A 1.0001 1.0001 0 0 0 16.984375 49.986328 z M 21.984375 49.986328 A 1.0001 1.0001 0 0 0 21 51L21 53 A 1.0001 1.0001 0 1 0 23 53L23 51 A 1.0001 1.0001 0 0 0 21.984375 49.986328 z M 26.984375 49.986328 A 1.0001 1.0001 0 0 0 26 51L26 53 A 1.0001 1.0001 0 1 0 28 53L28 51 A 1.0001 1.0001 0 0 0 26.984375 49.986328 z M 31.984375 49.986328 A 1.0001 1.0001 0 0 0 31 51L31 53 A 1.0001 1.0001 0 1 0 33 53L33 51 A 1.0001 1.0001 0 0 0 31.984375 49.986328 z M 36.984375 49.986328 A 1.0001 1.0001 0 0 0 36 51L36 53 A 1.0001 1.0001 0 1 0 38 53L38 51 A 1.0001 1.0001 0 0 0 36.984375 49.986328 z M 41.984375 49.986328 A 1.0001 1.0001 0 0 0 41 51L41 53 A 1.0001 1.0001 0 1 0 43 53L43 51 A 1.0001 1.0001 0 0 0 41.984375 49.986328 z M 46.984375 49.986328 A 1.0001 1.0001 0 0 0 46 51L46 53 A 1.0001 1.0001 0 1 0 48 53L48 51 A 1.0001 1.0001 0 0 0 46.984375 49.986328 z M 51.984375 49.986328 A 1.0001 1.0001 0 0 0 51 51L51 53 A 1.0001 1.0001 0 1 0 53 53L53 51 A 1.0001 1.0001 0 0 0 51.984375 49.986328 z" fill="#1E84B5" />
</svg>