<?xml version="1.0" encoding="utf-8"?>
<svg xmlns="http://www.w3.org/2000/svg" viewBox="0 0 64 64" width="128" height="128">
  <path d="M32 8C16.121094 8 5.136719 22.097656 1.148438 28.160156C0.964844 28.441406 0.804688 28.734375 0.664063 29.03125C0.664063 29.039063 0.660156 29.042969 0.65625 29.050781C-0.359375 31.226563 -0.195313 33.792969 1.148438 35.839844C5.136719 41.902344 16.121094 56 32 56C47.878906 56 58.863281 41.902344 62.847656 35.839844C64.195313 33.792969 64.359375 31.222656 63.34375 29.046875C63.339844 29.042969 63.335938 29.039063 63.332031 29.03125C63.195313 28.734375 63.035156 28.441406 62.847656 28.160156C58.863281 22.097656 47.878906 8 32 8 Z M 32 10C43.4375 10 52.257813 17.929688 57.464844 24.238281C50.671875 19.378906 41.835938 15 32 15C22.164063 15 13.328125 19.378906 6.535156 24.238281C11.742188 17.929688 20.5625 10 32 10 Z M 32 17C34.609375 17 37.144531 17.34375 39.59375 17.917969C44.78125 20.722656 48 26.101563 48 32C48 40.820313 40.820313 48 32 48C23.179688 48 16 40.820313 16 32C16 26.128906 19.207031 20.738281 24.375 17.933594C24.375 17.929688 24.378906 17.925781 24.382813 17.921875C26.839844 17.34375 29.382813 17 32 17 Z M 31.738281 17.996094C29.992188 18.027344 28.257813 18.390625 26.613281 19.078125C26.101563 19.289063 25.863281 19.875 26.078125 20.386719C26.234375 20.769531 26.605469 21 27 21C27.128906 21 27.257813 20.976563 27.386719 20.921875C29.640625 19.984375 32.085938 19.75 34.464844 20.253906C35 20.367188 35.535156 20.019531 35.652344 19.480469C35.765625 18.941406 35.417969 18.410156 34.878906 18.296875C33.839844 18.078125 32.785156 17.976563 31.738281 17.996094 Z M 18.9375 19.625C15.820313 22.917969 14 27.320313 14 32C14 41.925781 22.074219 50 32 50C41.925781 50 50 41.925781 50 32C50 27.3125 48.1875 22.921875 45.074219 19.628906C51.667969 22.234375 57.359375 26.355469 61.597656 30.070313C62.238281 31.585938 62.101563 33.335938 61.175781 34.738281C57.371094 40.53125 46.902344 54 32 54C17.097656 54 6.628906 40.53125 2.820313 34.738281C1.898438 33.335938 1.761719 31.585938 2.398438 30.070313C6.644531 26.351563 12.335938 22.226563 18.9375 19.625 Z M 38.875 19.886719C38.488281 19.832031 38.089844 20.007813 37.875 20.359375C37.59375 20.835938 37.742188 21.449219 38.21875 21.734375C38.835938 22.105469 39.425781 22.539063 39.964844 23.019531C40.15625 23.1875 40.394531 23.269531 40.628906 23.269531C40.902344 23.269531 41.179688 23.160156 41.375 22.9375C41.742188 22.523438 41.707031 21.890625 41.292969 21.523438C40.660156 20.960938 39.972656 20.457031 39.25 20.019531C39.132813 19.949219 39.003906 19.90625 38.875 19.886719 Z M 22.808594 21.808594C22.554688 21.808594 22.296875 21.90625 22.101563 22.101563C21.710938 22.492188 21.710938 23.125 22.101563 23.515625L23.515625 24.929688C23.710938 25.125 23.964844 25.222656 24.222656 25.222656C24.480469 25.222656 24.734375 25.125 24.929688 24.929688C25.320313 24.539063 25.320313 23.90625 24.929688 23.515625L23.515625 22.101563C23.320313 21.90625 23.0625 21.808594 22.808594 21.808594 Z M 43.328125 24.796875C43.195313 24.808594 43.066406 24.847656 42.949219 24.914063C42.460938 25.179688 42.28125 25.785156 42.546875 26.269531C44.320313 29.539063 44.488281 33.371094 43.003906 36.78125C41.730469 39.71875 39.382813 41.988281 36.402344 43.160156C35.886719 43.363281 35.636719 43.945313 35.839844 44.460938C35.992188 44.855469 36.371094 45.09375 36.769531 45.09375C36.890625 45.09375 37.015625 45.074219 37.136719 45.027344C40.613281 43.65625 43.351563 41.007813 44.84375 37.578125C46.570313 33.601563 46.371094 29.132813 44.300781 25.316406C44.105469 24.953125 43.714844 24.757813 43.328125 24.796875 Z M 20.035156 25.921875C19.644531 25.921875 19.273438 26.148438 19.109375 26.53125C18.894531 27.039063 19.132813 27.625 19.640625 27.84375L21.484375 28.625C21.613281 28.675781 21.742188 28.703125 21.875 28.703125C22.265625 28.703125 22.636719 28.472656 22.796875 28.09375C23.011719 27.585938 22.773438 26.996094 22.265625 26.78125L20.421875 26C20.296875 25.945313 20.164063 25.921875 20.035156 25.921875 Z M 32 26C28.691406 26 26 28.691406 26 32C26 35.308594 28.691406 38 32 38C35.308594 38 38 35.308594 38 32C38 28.691406 35.308594 26 32 26 Z M 32 27.625C34.414063 27.625 36.375 29.585938 36.375 32C36.375 34.414063 34.414063 36.375 32 36.375C29.585938 36.375 27.625 34.414063 27.625 32C27.625 29.585938 29.585938 27.625 32 27.625 Z M 19 31C18.445313 31 18 31.445313 18 32C18 32.554688 18.445313 33 19 33L21 33C21.554688 33 22 32.554688 22 32C22 31.445313 21.554688 31 21 31 Z M 21.816406 35.121094C21.6875 35.117188 21.554688 35.140625 21.425781 35.191406L19.574219 35.941406C19.058594 36.148438 18.8125 36.730469 19.019531 37.246094C19.175781 37.632813 19.550781 37.871094 19.949219 37.871094C20.074219 37.871094 20.199219 37.847656 20.320313 37.796875L22.175781 37.046875C22.6875 36.84375 22.933594 36.257813 22.730469 35.746094C22.574219 35.363281 22.207031 35.128906 21.816406 35.121094 Z M 24.21875 38.777344C23.964844 38.777344 23.710938 38.875 23.515625 39.070313L22.101563 40.484375C21.710938 40.875 21.710938 41.507813 22.101563 41.898438C22.296875 42.09375 22.550781 42.191406 22.808594 42.191406C23.066406 42.191406 23.320313 42.09375 23.515625 41.898438L24.929688 40.484375C25.320313 40.09375 25.320313 39.460938 24.929688 39.070313C24.734375 38.875 24.476563 38.777344 24.21875 38.777344 Z M 27.703125 41.125C27.3125 41.125 26.945313 41.351563 26.78125 41.734375L26 43.578125C25.785156 44.085938 26.019531 44.671875 26.53125 44.890625C26.65625 44.941406 26.789063 44.96875 26.921875 44.96875C27.3125 44.96875 27.679688 44.738281 27.84375 44.359375L28.625 42.515625C28.839844 42.007813 28.601563 41.421875 28.09375 41.203125C27.964844 41.152344 27.832031 41.125 27.703125 41.125 Z M 32 42C31.445313 42 31 42.445313 31 43L31 45C31 45.554688 31.445313 46 32 46C32.554688 46 33 45.554688 33 45L33 43C33 42.445313 32.554688 42 32 42Z" fill="#1E84B5" />
</svg>